<?xml version="1.0" encoding="UTF-8"?>
<!DOCTYPE svg PUBLIC "-//W3C//DTD SVG 1.1//EN" "http://www.w3.org/Graphics/SVG/1.1/DTD/svg11.dtd">
<!-- Creator: CorelDRAW X6 -->
<svg xmlns="http://www.w3.org/2000/svg" xml:space="preserve" width="500px" height="400px" version="1.1" style="shape-rendering:geometricPrecision; text-rendering:geometricPrecision; image-rendering:optimizeQuality; fill-rule:evenodd; clip-rule:evenodd"
viewBox="0 0 500 400"
 xmlns:xlink="http://www.w3.org/1999/xlink">
 <defs>
  <style type="text/css">
   <![CDATA[
    .fil0 {fill:none}
    .fil1 {fill:#3A589A;fill-rule:nonzero}
   ]]>
  </style>
 </defs>
 <g id="Layer_x0020_1">
  <metadata id="CorelCorpID_0Corel-Layer"/>
  <g id="_911631040">
   <path class="fil0" d="M273 52c1,12 0,25 3,36 4,-1 6,-3 9,-4 23,-8 38,23 21,37 -7,6 -17,6 -27,1 -2,7 0,14 0,21"/>
   <path class="fil1" d="M270 52c0,-1 1,-3 2,-3 1,0 3,1 3,2l0 0c0,4 1,9 1,13 0,7 1,13 2,20 1,0 2,-1 2,-1 1,-1 3,-2 4,-2 8,-3 15,-1 20,2 3,2 6,5 8,9 2,4 3,7 3,12 0,7 -2,13 -9,18l0 0 0 0 0 0c-1,1 -2,2 -4,2 -1,1 -3,1 -4,2l0 0c-6,2 -12,1 -19,-2 0,3 0,6 0,9 0,3 1,6 0,9 0,1 -1,2 -3,2 -1,0 -2,-1 -2,-3 0,-3 0,-5 0,-8 0,-5 -1,-9 0,-14l1 -3 3 1c7,3 13,4 19,3l0 0c1,0 2,-1 3,-1 1,0 2,-1 3,-2l0 0 0 0 0 0c5,-4 7,-9 7,-14 0,-3 -1,-6 -3,-9 -2,-3 -4,-5 -6,-7 -4,-3 -10,-4 -16,-2 -1,0 -2,1 -3,2 -2,1 -3,2 -6,3l-2 1 -1 -2c-2,-7 -2,-15 -2,-23 0,-4 0,-9 -1,-13l0 0z"/>
   <path class="fil0" d="M278 142c17,0 33,1 50,-1 0,-1 0,-1 0,-2 -8,-13 -1,-28 11,-32 18,-6 34,12 27,30 16,-1 32,-5 47,-8"/>
   <path class="fil1" d="M278 145c-1,0 -3,-1 -3,-2 0,-1 1,-2 2,-2l1 0c5,0 11,0 16,0 10,0 21,0 31,-1 -1,-1 -1,-2 -1,-3 -2,-6 -2,-12 0,-17 2,-5 6,-9 10,-12 1,-1 3,-1 4,-2 6,-2 11,-2 16,0 3,1 6,3 9,6 2,3 4,6 6,9 1,4 2,9 1,14 12,-1 25,-4 37,-6l7 -1c1,0 3,1 3,2 0,1 -1,3 -2,3 -4,1 -6,1 -7,1 -14,3 -27,5 -41,7l0 0 -4 0 1 -4c2,-5 2,-10 0,-14 -1,-3 -3,-5 -4,-7 -2,-2 -4,-4 -7,-5 -4,-1 -8,-2 -13,0 -1,0 -2,1 -3,2 -4,2 -7,6 -8,10 -2,4 -2,9 0,13 0,1 1,3 2,4l0 1 0 1 0 0 0 0c0,1 0,1 0,3l-1 1 -2 0c-11,1 -22,1 -34,1 -5,0 -11,0 -16,0l-1 0z"/>
   <path class="fil0" d="M156 118c0,8 -1,16 1,24"/>
   <path class="fil1" d="M154 118c0,-1 1,-3 2,-3 1,0 3,1 3,2l0 0c0,3 0,6 0,9 0,5 0,10 1,14 0,1 -1,3 -2,3 -1,0 -3,-1 -3,-2 -1,-5 -1,-10 -1,-15 0,-3 0,-6 0,-9l0 0z"/>
   <path class="fil0" d="M157 142c14,-1 29,0 43,-1 -9,-23 20,-42 36,-26 7,7 7,15 5,25 12,2 25,0 37,1"/>
   <path class="fil1" d="M157 145c-1,0 -3,-1 -3,-2 0,-1 1,-3 2,-3l0 0 0 0c7,0 14,0 21,0 6,0 12,0 19,0 -2,-7 -1,-13 2,-18 2,-4 5,-7 9,-10 4,-2 8,-4 12,-4 6,0 13,2 18,7 4,4 6,8 7,13 1,4 0,8 0,12 6,1 13,1 20,0 5,0 10,0 14,0 1,0 2,1 2,3 0,1 -1,2 -3,2 -5,0 -9,0 -14,0 -8,0 -16,0 -23,-1l0 0 -3 0 1 -3c1,-4 2,-9 1,-13 -1,-4 -2,-7 -5,-10 -4,-4 -9,-6 -14,-5 -3,0 -7,1 -10,3 -3,2 -5,5 -7,8 -3,5 -3,11 -1,17l1 3 -3 0c-7,0 -15,0 -22,0 -7,0 -14,0 -21,0l0 0z"/>
   <path class="fil0" d="M278 184c0,-14 0,-28 0,-42"/>
   <path class="fil1" d="M281 184c0,1 -1,2 -2,2 -1,0 -2,-1 -2,-2l0 -42c0,-1 1,-2 2,-2 1,0 2,1 2,2l0 42z"/>
   <path class="fil0" d="M157 184c-1,-14 -1,-28 0,-42l-78 0"/>
   <path class="fil1" d="M159 184c0,1 -1,3 -2,3 -1,0 -3,-1 -3,-2l0 0c0,-2 0,-4 0,-6 0,-2 0,-4 0,-6 0,-9 0,-18 0,-28l-75 0c-1,0 -2,-1 -2,-2 0,-1 1,-2 2,-2l78 0 3 0 0 3c0,10 -1,20 0,30 0,2 0,4 0,6 0,2 0,4 0,6l0 0z"/>
   <path class="fil0" d="M414 129c6,10 11,22 15,33 -9,5 -21,6 -30,10 -1,3 1,4 1,7 2,45 -67,41 -67,6 -22,-1 -33,1 -55,-1"/>
   <path class="fil1" d="M410 132c-1,-2 -1,-5 2,-7 2,-1 5,-1 7,2 3,5 6,11 9,17 3,6 5,12 7,17l2 4 -4 2c-6,3 -12,4 -18,6 -3,1 -7,2 -10,3 0,1 1,2 1,3l0 0c1,18 -8,30 -21,35 -5,2 -11,3 -16,3 -6,0 -11,-1 -16,-3 -12,-4 -21,-13 -23,-25 -8,0 -15,0 -21,0 -9,0 -17,0 -29,-1 -3,0 -5,-3 -5,-5 0,-3 3,-5 5,-5 12,1 20,1 29,1 8,0 16,0 26,0l5 0 0 5c0,10 7,17 16,20 4,1 8,2 13,2 4,0 9,-1 13,-3 9,-4 15,-12 15,-25l0 0c0,0 0,0 0,-1 -1,-2 -1,-4 -1,-7l1 -2 2 -1c5,-2 10,-3 15,-4 4,-1 8,-2 11,-3 -2,-4 -3,-8 -5,-12 -2,-5 -5,-11 -8,-16z"/>
   <path class="fil0" d="M156 118c12,-1 22,-3 30,-6 33,-12 32,-50 66,-59 4,-1 14,-2 21,-2"/>
   <path class="fil1" d="M157 123c-3,0 -5,-2 -5,-4 0,-3 2,-5 4,-5 6,-1 11,-1 16,-2 5,-1 9,-2 13,-3 15,-5 22,-16 29,-28 9,-13 17,-26 37,-31l0 0 0 0 0 0c1,0 2,0 2,0 1,0 2,0 3,0 5,-1 12,-1 17,-1 3,0 5,3 5,5 0,3 -3,5 -5,5 -4,0 -11,0 -15,1 -1,0 -1,0 -2,0 -1,0 -1,0 -2,0l0 0 0 0 0 0c-16,4 -23,15 -31,27 -8,12 -17,25 -34,31 -4,2 -9,3 -14,4 -5,1 -11,2 -17,2z"/>
   <path class="fil0" d="M273 52c26,-4 75,0 94,5 22,7 31,28 40,50 3,7 6,15 8,22"/>
   <path class="fil1" d="M274 57c-3,0 -5,-1 -6,-4 0,-3 1,-5 4,-6l0 0 0 0c4,-1 8,-1 13,-1 4,0 9,0 14,0 25,0 55,3 69,7 12,4 21,11 28,21 6,9 11,20 15,31l0 0 0 0 0 0 1 2c3,7 5,14 7,21 1,3 -1,5 -4,6 -3,1 -5,-1 -6,-4 -1,-6 -4,-13 -6,-19l-1 -2 0 0 0 0 0 0c-4,-11 -8,-21 -14,-29 -5,-8 -12,-14 -22,-17 -13,-4 -42,-7 -66,-7 -5,0 -9,0 -14,0 -4,0 -8,1 -12,1l0 0 0 0z"/>
   <path class="fil0" d="M157 184c40,0 81,1 122,0"/>
   <path class="fil1" d="M157 189c-3,0 -5,-2 -5,-5 0,-3 2,-5 5,-5l1 0 18 0c34,0 68,0 102,0 3,0 5,2 5,5 0,3 -2,5 -5,5 -34,1 -68,1 -103,0l-18 0 -1 0z"/>
   <path class="fil0" d="M156 118c-40,-4 -96,17 -94,64 9,1 19,0 28,1 4,37 61,38 67,1"/>
   <path class="fil1" d="M157 113c3,0 5,3 4,5 0,3 -3,5 -6,4 -4,0 -9,-1 -14,-1 -17,1 -35,5 -49,14 -14,9 -24,21 -26,38 0,1 0,2 0,3 4,0 8,0 13,0 3,0 7,0 10,0l4 0 0 4c1,10 7,17 14,21 4,2 9,3 14,3 5,0 10,-1 14,-3 8,-3 14,-10 15,-20 0,-3 3,-5 6,-4 3,0 5,3 4,6 -2,14 -10,23 -21,28 -6,3 -12,4 -18,4 -6,0 -13,-2 -18,-4 -9,-5 -16,-13 -19,-24 -2,0 -4,0 -5,0 -6,0 -12,0 -19,-1l-4 -1 0 -4c0,-3 0,-6 0,-9 2,-20 14,-35 30,-45 16,-10 35,-15 54,-16 5,0 10,0 15,1z"/>
   <path class="fil1" d="M40 342l-21 0 25 -105 27 0 24 105 -21 0 -5 -27 -23 0 -5 27zm14 -72l-6 30 17 0 -5 -30c0,-2 -1,-4 -1,-5 0,-2 -1,-5 -1,-9l-1 -7 -1 7c0,3 -1,6 -1,8 0,2 -1,4 -1,7z"/>
   <path class="fil1" d="M106 342l0 -79 26 0c8,0 15,2 19,5 5,3 8,9 8,16 0,4 -1,8 -3,11 -2,3 -5,5 -8,6 4,1 7,3 9,7 2,4 4,8 4,12 0,8 -3,14 -8,18 -5,3 -12,5 -21,5l-26 0zm18 -66l0 18 4 0c5,0 8,0 9,-1 2,-1 3,-4 3,-8 0,-3 -1,-6 -3,-7 -2,-1 -5,-1 -10,-1l-3 0zm0 31l0 21 4 0c5,0 8,-1 10,-2 2,-2 3,-5 3,-9 0,-4 -1,-7 -4,-9 -2,-1 -5,-1 -10,-1l-4 0z"/>
   <polygon class="fil1" points="166,263 219,263 219,277 201,277 201,342 183,342 183,277 166,277 "/>
   <path class="fil1" d="M247 290l0 26c0,4 0,7 1,9 1,4 4,5 9,5 4,0 7,-1 8,-3 1,-2 1,-5 1,-11l0 -26c0,-6 -1,-10 -2,-12 -1,-2 -4,-3 -7,-3 -4,0 -7,2 -9,5 -1,2 -1,5 -1,10zm10 54c-12,0 -19,-3 -23,-9 -3,-5 -5,-15 -5,-30 0,-11 0,-19 1,-24 1,-7 4,-12 7,-15 4,-4 11,-5 20,-5 9,0 15,2 19,5 4,3 6,8 7,15 1,5 1,13 1,24 0,15 -2,25 -5,30 -4,6 -11,9 -23,9z"/>
   <polygon class="fil1" points="327,307 294,307 294,291 327,291 "/>
   <path class="fil1" d="M356 342l-21 0 25 -105 27 0 24 105 -21 0 -5 -27 -23 0 -5 27zm14 -72l-6 30 17 0 -5 -30c0,-2 -1,-4 -1,-5 0,-2 -1,-5 -1,-9l-1 -7 -1 7c0,3 -1,6 -1,8 0,2 -1,4 -1,7z"/>
   <path class="fil1" d="M464 305l20 0 0 6c0,10 -2,18 -7,24 -5,7 -13,10 -23,10 -10,0 -18,-2 -23,-6 -5,-4 -8,-9 -10,-17 -1,-6 -2,-14 -2,-25l0 -15c0,-16 2,-27 5,-33 5,-9 15,-13 29,-13 9,0 16,2 21,7 5,5 8,11 8,20 0,3 1,5 1,8l-20 0c-1,-8 -2,-12 -2,-12 -1,-5 -4,-7 -8,-7 -6,0 -10,3 -12,8 -1,3 -2,8 -2,15l0 4 0 29c0,6 1,11 2,15 2,6 6,8 12,8 5,0 8,-3 9,-10 1,-3 1,-8 1,-15z"/>
  </g>
 </g>
</svg>
